<svg id="Layer_1" data-name="Layer 1" xmlns="http://www.w3.org/2000/svg" viewBox="0 0 237.96 179.29"><title>Cafe_Amazon-logo</title><path d="M502.5,361.49c-.76-1.22-2.34-1.29-3.53-1.81a4.52,4.52,0,0,0-3.61-1.12c-3.09.17-6.38-.6-9.3.74a75.1,75.1,0,0,0-4.71-7.39,6.44,6.44,0,0,0-.78-4.25c-1.19-2.1-2.35-4.34-4.34-5.8a5.79,5.79,0,0,0-4.36-.9c-1.1-1.07-2.23-2.12-3.37-3.14a13.28,13.28,0,0,0-.58-10,8.63,8.63,0,0,0-7.2-4.45,19.55,19.55,0,0,0-9.38,2.24c-18.87-10.74-40.6-16-62.25-16.39a138.37,138.37,0,0,0-44.42,6.34,17.27,17.27,0,0,0-4.73-14.4c-.46-.48-.53-1.2-.86-1.76a9.73,9.73,0,0,0-8.46-5,23.36,23.36,0,0,0-13.32,3.71,21.9,21.9,0,0,0-8.4,11,29.74,29.74,0,0,0,0,19,15.28,15.28,0,0,0-4.31,6.2,33.52,33.52,0,0,0-1.12,4.39A87.15,87.15,0,0,0,291,352.79,70.15,70.15,0,0,0,280.44,375a63.45,63.45,0,0,0-1.49,25.42,1.87,1.87,0,0,1,0,1.09c-5.07,11.23-8.87,23-12.74,34.65a16.39,16.39,0,0,0-1.13,7c.05,1.36,1.28,2.25,2.42,2.74,2.77,1.09,5.87.72,8.68,0,3.13,0,6.54-.56,8.85-2.86a9.87,9.87,0,0,0,2.58-5.14c.82-2.94,1.76-5.84,2.72-8.74,8.2,12,19.62,21.61,32.28,28.65a129.75,129.75,0,0,0,54.63,15.56,139.17,139.17,0,0,0,52.41-6.51A114.86,114.86,0,0,0,462.37,450a85.43,85.43,0,0,0,23.73-26.54,3.07,3.07,0,0,0,2-.3,5.26,5.26,0,0,0,1.52-2.24c1.21-3,1.45-6.26,1.93-9.43a25.33,25.33,0,0,1,.82-3.22,65,65,0,0,0,2.15-12.72,57.75,57.75,0,0,1,2-7.58c1.31-4.25,2.61-8.5,3.74-12.8.77-3.1,1.5-6.22,2.3-9.31C502.86,364.44,503.36,362.82,502.5,361.49Z" transform="translate(-265.02 -294.35)" style="fill:#fff"/><path d="M317.3,298.07a23.36,23.36,0,0,1,13.32-3.71,9.73,9.73,0,0,1,8.46,5c.33.56.4,1.28.86,1.76a17.27,17.27,0,0,1,4.73,14.4,138.37,138.37,0,0,1,44.42-6.34c21.64.39,43.37,5.65,62.25,16.39a19.55,19.55,0,0,1,9.38-2.24,8.63,8.63,0,0,1,7.2,4.45,13.28,13.28,0,0,1,.58,10c1.15,1,2.28,2.06,3.37,3.14a5.79,5.79,0,0,1,4.36.9c2,1.45,3.15,3.7,4.34,5.8a6.44,6.44,0,0,1,.78,4.25,75.09,75.09,0,0,1,4.71,7.39c2.92-1.34,6.21-.56,9.3-.74a4.52,4.52,0,0,1,3.61,1.12c1.19.52,2.77.59,3.53,1.81s.36,2.94,0,4.36c-.8,3.1-1.52,6.21-2.3,9.31-1.13,4.3-2.43,8.55-3.74,12.8a57.75,57.75,0,0,0-2,7.58,65,65,0,0,1-2.15,12.72,25.34,25.34,0,0,0-.82,3.22c-.47,3.17-.71,6.43-1.93,9.43a5.26,5.26,0,0,1-1.52,2.24,3.07,3.07,0,0,1-2,.3A85.43,85.43,0,0,1,462.37,450a114.86,114.86,0,0,1-32.74,16.84,139.17,139.17,0,0,1-52.41,6.51,129.75,129.75,0,0,1-54.63-15.56c-12.66-7-24.08-16.63-32.28-28.65-1,2.9-1.9,5.8-2.72,8.74A9.87,9.87,0,0,1,285,443c-2.32,2.3-5.73,2.82-8.85,2.86-2.81.74-5.91,1.1-8.68,0-1.14-.49-2.37-1.39-2.42-2.74a16.38,16.38,0,0,1,1.13-7c3.87-11.68,7.67-23.42,12.74-34.65a1.87,1.87,0,0,0,0-1.09A63.45,63.45,0,0,1,280.44,375,70.15,70.15,0,0,1,291,352.79a87.15,87.15,0,0,1,12.52-14.13,33.51,33.51,0,0,1,1.12-4.39,15.28,15.28,0,0,1,4.31-6.2,29.74,29.74,0,0,1,0-19A21.9,21.9,0,0,1,317.3,298.07Zm.62,4.19a20.7,20.7,0,0,0-6.1,8.48c-2,5.46-1.36,11.56.64,16.92.11.57.26,1.13.41,1.69a5,5,0,0,0-3.51,2A12.53,12.53,0,0,0,306.7,339a27.36,27.36,0,0,0,4.9,17.6c3.65,5.16,9.32,8.63,15.3,10.43a21.07,21.07,0,0,0,8.07,1,34.53,34.53,0,0,1-13.23-9,22,22,0,0,1-5.68-11.46c-.48-3.16.15-6.33.66-9.44.32-2,.82-4,.43-6a7.83,7.83,0,0,1,.43,4.64c-.56,4.45-.86,9.09.6,13.41,1.49,4.58,4.7,8.34,8.18,11.56,2.85,2.6,6.38,4.26,9.79,6a19.72,19.72,0,0,0,3.72,1.26,16,16,0,0,0,8.26.57c1.52-.6,3.27-.93,4.38-2.24,2-1.9,2.35-4.73,3-7.26-.27,2.65-1.28,5.38-.37,8,.55,1.43,2.56,1.09,3.4.13,1.37-1.57,1.47-3.8,1.56-5.78a16.6,16.6,0,0,0-1.41-6.86,82.16,82.16,0,0,0-4.57-9.56c-1.67-3.09-3.65-6-5.31-9.07-1.39-2.71-2.43-5.91-1.51-8.94a14.87,14.87,0,0,1-5.57-2.59,8,8,0,0,1-3.56-4.41,9.12,9.12,0,0,1-1.63,2.34,8.48,8.48,0,0,1-4.8,1.82A8,8,0,0,0,336,322a11.34,11.34,0,0,0,1.38-6.18,6.41,6.41,0,0,1-1.59,3.35,5.41,5.41,0,0,1-5.91,1.55,6.7,6.7,0,0,1-3.12-4.59,9,9,0,0,1,.63-6.47,6.8,6.8,0,0,1-.6-1.36l-.07,0c-.51-2.72.86-6,3.71-6.78a3.76,3.76,0,0,0-1.75,2.46c3,2,6.24,3.79,8.27,6.82a12.88,12.88,0,0,1,1.79,9.57,13.71,13.71,0,0,0,2-4.87,15.61,15.61,0,0,0-.76-7.29,12.25,12.25,0,0,0-3.88-5.25,4.8,4.8,0,0,0-1.85-3.4,7.12,7.12,0,0,0-3.91-1.3C326,298.25,321.38,299.38,317.92,302.25ZM332.05,313a3,3,0,0,0,1.2,2.34,4.64,4.64,0,0,0,4,.25C335.81,314.24,333.84,313.73,332.05,313Zm42.2,5c-2.45.2-4.88.53-7.31.87a1.93,1.93,0,0,0-.87.28,9.53,9.53,0,0,0-1.27.12c-3.34.59-6.67,1.29-10,2.16a24.59,24.59,0,0,1,5.55,4.56c3.37,3.91,6.34,8.48,7.13,13.67a76.72,76.72,0,0,1,.87,11.63,26.79,26.79,0,0,1,3.32-4.2,3.68,3.68,0,0,0,.76-.85,38.63,38.63,0,0,1,12.72-7.63l0-.1A11.46,11.46,0,0,0,387,338l0-.08a51,51,0,0,1,10.48-2.33,16.59,16.59,0,0,1,5.22.17,15.86,15.86,0,0,1,5.32,2.27c.53.45,1.07.88,1.63,1.3a16.29,16.29,0,0,1,2.45,2.93,29.59,29.59,0,0,1,7.33-2.83,66.83,66.83,0,0,1,16.27-2.79c.64,0,1.08-.45,1.5-.86a67.49,67.49,0,0,1,5.16-4.55l.26-.06a23.4,23.4,0,0,0-4.12-2.28l-.08,0c-.77-.37-1.56-.7-2.31-1.11a85.9,85.9,0,0,0-8.89-3.6l-.06,0c-2.59-.93-5.21-1.74-7.86-2.47a50.2,50.2,0,0,0-5.44-1.38c-1.38-.27-2.75-.57-4.12-.85A109.73,109.73,0,0,0,398.14,318q-3-.27-6-.41A132.1,132.1,0,0,0,374.25,318Zm-25.48,7.8a5.16,5.16,0,0,0-1.34,5,23,23,0,0,0,3.19,7.33c1.77,3,3.89,5.68,5.78,8.56a47.13,47.13,0,0,1,2.66,5.35c2.08,4.84,2.75,10.12,3.53,15.29a39.25,39.25,0,0,0,1.78-7.12c1.34-7.79,1.53-16-1.09-23.54-1.14-3.23-3.36-5.91-5.64-8.4a11.48,11.48,0,0,0-5.14-3.1A3.82,3.82,0,0,0,348.77,325.79Zm98.65,6.76a59.2,59.2,0,0,0-9.15,8.31,46.28,46.28,0,0,0-6.81.38,88.51,88.51,0,0,0-12.88,3,16.92,16.92,0,0,0-2.87.95c.11.74,1.06.71,1.64.71,2.62-.26,5.2-.85,7.81-1.18a101.47,101.47,0,0,1,11.28-.74,39.35,39.35,0,0,0-4,6.35,71.27,71.27,0,0,0-4.12,10.94,24.25,24.25,0,0,0-1.19,5.56,2.46,2.46,0,0,0,.64,2.06c.44.27.94.45,1.4.69-5-.16-10-.36-15-.28a20.68,20.68,0,0,0,6.08-2.33c.08.31.07.7.41.85a3.46,3.46,0,0,0,2.7-.66c.56-.84.16-1.91.25-2.84a11.52,11.52,0,0,0,3.11-8.82c-.15-2.46-.95-5.07-2.94-6.66s-4.83-1.95-7.38-1.8a12.42,12.42,0,0,0-6.77,2.14,6.43,6.43,0,0,0-2.46,3c-.18.58-.15,1.42.51,1.66a3.32,3.32,0,0,0,3.21-.37c.48-.45.29-1.16.39-1.74a3.38,3.38,0,0,1,1.4-1.17,6.63,6.63,0,0,1,5.14-.53,6.72,6.72,0,0,1,4.42,3.56c.8,1.89.36,4-.26,5.87-.93-1.78-2.18-3.65-4.22-4.23-2.77-.76-5.67.18-8.15,1.43-2.19,1.17-4.42,2.84-5.15,5.33A38.8,38.8,0,0,1,394,367.28c-2.59.76-5.45,1.19-8.06.27a9.25,9.25,0,0,1-5.62-5.19,10.94,10.94,0,0,1,.61-7.67,16.56,16.56,0,0,1,3.76-5.93,21.64,21.64,0,0,1,9.46-5,12.93,12.93,0,0,1,6.49-.19,4.84,4.84,0,0,1,3.14,2.54c.45,1.41-.57,2.76-1.63,3.59a10.67,10.67,0,0,1-7.43,1.93c-.51,0-1.08-.17-1.54.12a1.43,1.43,0,0,0,.45,1.47,5.7,5.7,0,0,0,3.11,1.58,10.55,10.55,0,0,0,6.71-1.25,11.89,11.89,0,0,0,4.29-3.47,5.92,5.92,0,0,0,1.05-4.58,6.88,6.88,0,0,0-3.42-4.5,11.32,11.32,0,0,0-6.66-1.32A42.39,42.39,0,0,0,387,342.4a33.71,33.71,0,0,0-11.85,7.21,17.8,17.8,0,0,0-5.29,9.9,12.71,12.71,0,0,0,1,8,9.06,9.06,0,0,0,4.57,3.91q-8,1-15.84,2.51c-.45,1.64-.59,3.7.61,5.05,11.89-2.31,24-3.09,36.11-3.36,5.34-.15,10.69-.21,16,0,6.21.2,12.41.69,18.62,1s12.47.85,18.68,1.46a61,61,0,0,1,1.58-6.67c-7.13-.89-14.3-1.46-21.48-1.81,2.1-5.62,4.45-11.15,7-16.59,1.33-2.73,2.58-5.58,4.71-7.79.52-.47,1.05-1.1,1.81-1.11a82,82,0,0,1,8.68,0c2.37.14,4.69.74,7.07.82a2.89,2.89,0,0,0,1.24-.25l0-.69c.57-.18,1.76.13,1.73-.76,0-.57-.66-.79-1.11-1a26.88,26.88,0,0,0-5-.76q-4.9-.38-9.79-.83a18.72,18.72,0,0,1,6.8-6.38c1.64-.77,3.54-1.51,5.35-.87.41-.35,1.1-.86,1.59-.33.62.79.56,1.88.83,2.81s.45,1.9,1.36,2.23a1.86,1.86,0,0,0,2-1.16,7.22,7.22,0,0,0,.68-5.09,4.69,4.69,0,0,0-1.75-3.35c-1.62-1-3.66-.85-5.48-.6C453.86,328.47,450.47,330.37,447.42,332.55Zm24.59,13a2.6,2.6,0,0,0-1.32,2.67c0,.72.76,1.07,1.1,1.63a3,3,0,0,1,.16,3.45,18.4,18.4,0,0,1-4.28,4.23,5.62,5.62,0,0,0-1.59,1.53,6,6,0,0,0,2.67-.62,19.91,19.91,0,0,0,7.86-6.11c.36-.43.81-.92.65-1.54a11.5,11.5,0,0,0-1.71-3.06,9.24,9.24,0,0,0-1.66-2.34C473.33,344.93,472.58,345.24,472,345.53ZM448.1,347.4a12.48,12.48,0,0,0-5.8,2.62,20.61,20.61,0,0,0-6,8.61,3.36,3.36,0,0,0-.38,2,4.82,4.82,0,0,0,2,2.48,21.56,21.56,0,0,0,6.2,2.76,12.3,12.3,0,0,0,5.68.06,42.19,42.19,0,0,0,9.44-3,6.16,6.16,0,0,0,2.76-1.9c-.63-.57-1.54-.35-2.31-.35-2.45.1-4.71,1.11-7.08,1.64-3,.89-6.3,1.6-9.25.26-1.36-.74-1.32-2.56-1-3.86a13.13,13.13,0,0,1,5-7.13,16.9,16.9,0,0,1,6.21-2.13,5.24,5.24,0,0,1,3.8.7,2.53,2.53,0,0,1,.31,3.72,9.07,9.07,0,0,1-5.31,2c-1.24.09-2.72.24-3.68-.71a5.46,5.46,0,0,1,1.15-.87c.25-.17.74-.41.46-.78a2.58,2.58,0,0,0-2.28-.34,3.71,3.71,0,0,0-2.05,2.22,2.27,2.27,0,0,0,.83,2.28,8.2,8.2,0,0,0,3.55,1.12,17.44,17.44,0,0,0,8.41-1.15,7.72,7.72,0,0,0,4.44-4.33,3.86,3.86,0,0,0-.76-4,9.51,9.51,0,0,0-5.81-2.54A34.3,34.3,0,0,0,448.1,347.4ZM296.2,363.72l-.36.1a38.05,38.05,0,0,0-2.22,4.73h.25a56.19,56.19,0,0,0-2.88,8.36,19.86,19.86,0,0,0-.66,3.16c1-1.52,1.76-3.16,2.65-4.73,1.2-2.3,2.7-4.42,4.12-6.58a30.87,30.87,0,0,1,4.17-5.23l.12,0a7.07,7.07,0,0,1,2.16-1.44c2.31-1.05,4.94-.45,7.34-1.18a37.42,37.42,0,0,1-3.07-4.08,34.69,34.69,0,0,1-2.87-5.87A65.54,65.54,0,0,0,296.2,363.72Zm88-6.63a4.68,4.68,0,0,0,.29,4.34,5.89,5.89,0,0,0,5.47,2.42,25.08,25.08,0,0,0,9.14-3.46,9.3,9.3,0,0,0,2.06-1.38c-.74.09-1.48.22-2.22.26a10.35,10.35,0,0,1-8-2.91,6.75,6.75,0,0,1-2.14-5.22A15.51,15.51,0,0,0,384.25,357.09Zm81.9,6.38c-.59.08-.95.62-1.4.95-1.66,1.39-3.69,2.19-5.52,3.29,2.53.39,5.08.71,7.61,1A95,95,0,0,1,480.36,372a57.21,57.21,0,0,0-5.75-12A20.89,20.89,0,0,1,466.14,363.47ZM486,366.78c-1.28,4.4-2.16,8.9-3.25,13.35-.64,2.74-1.57,5.4-2.25,8.13-1,4.11-2.17,8.21-2.81,12.4-3.21-5.21-3.87-11.47-6.57-16.91-.73-1.53-1.57-3-2.31-4.53-.86-1.73-1.15-3.69-2.15-5.35a2.06,2.06,0,0,0-1.93-1.2c-2.57.33-5.19,0-7.75.4-.52.11-1.22.26-1.28.9-1.69,6.85-2.36,13.89-3.42,20.86-1.35,8.77-2.75,17.53-3.95,26.33a6.44,6.44,0,0,0,2.62.62,16.79,16.79,0,0,0,5-.19c.44-.14,1.05-.28,1.14-.81,1.89-11.25,3.34-22.57,5.57-33.75a19.2,19.2,0,0,0,1.76,5.11c1,2.18,1.58,4.49,2.44,6.71,2.43,6.66,6,12.79,8.75,19.33a1.15,1.15,0,0,0,1.17.82,22.16,22.16,0,0,0,5.84-1c.77-.21,1.61.35,2.35-.11,1-.61,1.17-1.9,1.31-3,.12-2.06.43-4.1.73-6.13,1-6.48,2.05-13,3.62-19.33,1.74-6.11,3.59-12.19,5-18.39.49-2.06,1.45-4,1.61-6.16a1.39,1.39,0,0,0-1.08-1.65c-2.84,0-5.69,0-8.53,0A10.21,10.21,0,0,0,486,366.78Zm-121.89,1.93c.81-.12,1.63-.23,2.43-.42a12.48,12.48,0,0,1-.61-1.94A11.77,11.77,0,0,1,364.11,368.71Zm-58.23-1a4.18,4.18,0,0,0-2.75,1.24,21.18,21.18,0,0,0-2.88,3.46,57.87,57.87,0,0,0-4,6.39c-2.27,4.31-4.45,8.67-6.89,12.89a160,160,0,0,0-11.91,26.52c-2.58,7.16-4.93,14.4-7.37,21.61a.73.73,0,0,0,.55,1.07c1.52.25,2.92-.62,4.42-.64a25.38,25.38,0,0,0,4.36-.36c1-.33,1.11-1.56,1.38-2.43,1.73-6.1,3.83-12.08,5.9-18.07,5.91-1.69,11.88-3.16,17.82-4.77.46,6.77.82,13.58,1.93,20.28.12.44.12,1.47.85,1.14,2.36-1,5-.27,7.4-1.1.42-.16.93-.47.91-1-1.65-14.16-3.41-28.38-3.13-42.66.14-7.64.43-15.28,1.3-22.87,0-.81-.8-1.25-1.51-1.28C310.09,367,308,367.71,305.88,367.75ZM318.09,375c-.13,6.91-.28,13.82-.23,20.73a3.57,3.57,0,0,0,.5-.84c.84-2.13,1.65-4.28,2.61-6.36a6.69,6.69,0,0,1,2.3-2.43,5.15,5.15,0,0,1-1-3.46,5.55,5.55,0,0,1,2.12-3.29,14.12,14.12,0,0,1,2-1.09c-.09-.82-.32-1.62-.37-2.44.4-1.19,1.62-1.86,2.28-2.85-1.14-1.37-2.39-2.64-3.66-3.89a16.63,16.63,0,0,0-2.55-.88c0,.15,0,.44,0,.59-1.15-.6-2.35-1.11-3.54-1.66A60.51,60.51,0,0,0,318.09,375ZM339,370.29a22.08,22.08,0,0,1-.36,4.78,5.45,5.45,0,0,0-4,5.1c-2.38.86-5,1.41-7,2.89.93.86,1.71,2,2.92,2.48,1.67.54,3.29-.38,4.84-.87a3.21,3.21,0,0,0,1.66,1.45,3.37,3.37,0,0,0,2.4-.3c-.61-.39-1.34-.74-1.61-1.47a6.61,6.61,0,0,1-.11-4.66A10.17,10.17,0,0,0,339,384.1a3.86,3.86,0,0,0,4.13.91,4.72,4.72,0,0,1-1.78-1.57,8.24,8.24,0,0,1-.84-3.22,8.41,8.41,0,0,1,1.14-4.17,3.62,3.62,0,0,0-1.12-.89c.26-1.32.64-2.61.91-3.93A7.79,7.79,0,0,1,339,370.29Zm15.36.46a6,6,0,0,0-3.11,4.91q-4.42,1-8.81,2.18a7.81,7.81,0,0,0,0,4.85,16.47,16.47,0,0,1,3.28-.78,26.72,26.72,0,0,0,2.85,0c1.37-.24,2.65-.82,4-1.15a2.7,2.7,0,0,0,3.34.4,2.61,2.61,0,0,1-1.18-1.22,6.77,6.77,0,0,1-.09-4.79,11.24,11.24,0,0,0,1.28,4.3,4.25,4.25,0,0,0,4.48,1,4.31,4.31,0,0,1-2.58-3.74,7.08,7.08,0,0,1,1.25-5.18A4,4,0,0,0,354.37,370.76Zm119,4.18a23.79,23.79,0,0,0,1.46,3.92,26.26,26.26,0,0,0,4-.19,9.61,9.61,0,0,1,.44-2.13A31.94,31.94,0,0,0,473.34,374.93Zm-85.52,5.65-.25.26v-.32a234.25,234.25,0,0,0-25.32,2.29c-.07,1.56-.28,3.12-.25,4.68.28.48.63.91.94,1.37.81-.72,1.61-1.45,2.49-2.1a25.49,25.49,0,0,1,26.94-2c4.37-1.54,8.75-3.09,13.17-4.46a4.8,4.8,0,0,0-1.17-.1C398.86,380.24,393.33,380.25,387.82,380.58Zm45.18.48c.39.58.78,1.16,1.15,1.75a27.86,27.86,0,0,1,3.58-1.26C436.16,381.39,434.58,381.24,433,381.06Zm-19.43,2.85a122.55,122.55,0,0,0-12.73,3.64c-2.09.74-4.21,1.38-6.27,2.19-.7.27-.69,1.15-.49,1.75.54,1.68,1.66,3.09,2.43,4.67.18.52.84.44,1.28.36,2.49-.55,4.65-2,7-2.89,3.46-.85,6.91-1.76,10.44-2.31-.57.61-1.16,1.2-1.78,1.77-2.82,2.6-5.46,5.39-8.06,8.21-2.89,3.17-5.7,6.42-8.3,9.84a36.6,36.6,0,0,0-4.69,7.59,10.65,10.65,0,0,0-1.19,4.65,4,4,0,0,0,1.78,2.88,3.82,3.82,0,0,0,1.94,1,26.51,26.51,0,0,0,5-.24c5.1-.68,10.18-1.58,15.31-2a60.94,60.94,0,0,0,6.1-.56,1.43,1.43,0,0,0,1.17-1.51,7.29,7.29,0,0,0-1.65-4c-.48-.56-1-1.31-1.85-1.24-5.54.18-11.06.87-16.6.74,1.51-2.72,3.74-4.94,5.7-7.32,1.48-1.78,2.8-3.68,4.24-5.49a41,41,0,0,1,5.73-5.81c2.4-2.06,4.47-4.47,6.76-6.63a29.51,29.51,0,0,0,5.34-5.71c.37-.43,0-1-.2-1.37a19.3,19.3,0,0,0-3.18-3.95c-.41-.33-.85-.82-1.43-.67C421.4,382,417.49,383,413.58,383.91Zm33.36-1.5c.62.35,1.25.69,1.87,1.05,0-.3.09-.61.14-.91C448.28,382.5,447.61,382.45,446.94,382.41Zm29.49.61a14,14,0,0,0,1.37,3.61c.25-1.17.41-2.37.56-3.56A11.77,11.77,0,0,0,476.43,383Zm-36.79,3.74a15.71,15.71,0,0,0-8.18,4.76,29.64,29.64,0,0,0-6.87,11.28,35.79,35.79,0,0,0-2.24,10.2,11.65,11.65,0,0,0,1.6,6.83,8.49,8.49,0,0,0,7.55,3.85,14.45,14.45,0,0,0,7.72-3.44,28.12,28.12,0,0,0,6.74-7.86,23.33,23.33,0,0,0,1.81-4.79,37.38,37.38,0,0,0,1.8-12.26c-.15-2.43-.8-5-2.63-6.75A8.74,8.74,0,0,0,439.64,386.76Zm-70.39,4a34.12,34.12,0,0,0-3.33,2.82c-1.92,1.76-3.84,3.53-5.64,5.42a17.3,17.3,0,0,0-3,3.88c1.23,1.22,1.75,3,3.1,4.09,1.35.8,2.26-1,3.58-.89a29.84,29.84,0,0,0-3.87,7.4,10.83,10.83,0,0,0,.55,6.71,7.3,7.3,0,0,0,4.82,4.28c3.12.85,6.41.17,9.43-.77A42,42,0,0,0,385,419a2.66,2.66,0,0,0,2.41-.36,8.24,8.24,0,0,0,3-4c.23-.94,1-1.56,1.49-2.38a21.74,21.74,0,0,0,3.27-13.16,14.88,14.88,0,0,0-.76-5.1,9.35,9.35,0,0,0-3.07-3.74,16.38,16.38,0,0,0-7.37-2.88A20.55,20.55,0,0,0,369.24,390.79Zm-21-.74c-3.17,1.64-5.42,4.52-7.42,7.39.33-.91.93-1.82.73-2.82a2.24,2.24,0,0,0-2.19-1.28,8.78,8.78,0,0,0-4.77,1.9,25.52,25.52,0,0,0-5.57,5.46c.29-3.76,1.52-7.34,2.39-11,.06-.37.29-1-.25-1.09a11.5,11.5,0,0,1-2.65.06,2.67,2.67,0,0,0-2.57.47,14.76,14.76,0,0,0-2.48,4.85,103.1,103.1,0,0,0-3.28,14.54,116.34,116.34,0,0,0-1.37,20c0,1.7-.3,3.51.32,5.14a35.65,35.65,0,0,0,7.2-1.72c.72-1.15.43-2.62.57-3.91.6-8,2.2-16.06,6.09-23.14-.2,1.24-.59,2.45-.74,3.7a77.62,77.62,0,0,0-.48,15,6.54,6.54,0,0,0,.55,2.81c.46.62,1.29.28,1.9.14,1.31-.39,2.66,0,4-.07.82-.08,1-1,1.2-1.66,1.36-5.63,2-11.42,3.48-17a29.9,29.9,0,0,1,4.49-10.21c-1.11,9.78-2.43,19.53-3.43,29.32a1.58,1.58,0,0,0,1.1,1.87c1.8.49,3.64-.12,5.41-.45A2,2,0,0,0,352,427c.6-1.47.33-3.09.38-4.64a78,78,0,0,1,1.67-13,97.44,97.44,0,0,1,3.54-13.15c.74-2,1.55-4.21,1-6.38a3,3,0,0,0-3.2-2A17.85,17.85,0,0,0,348.21,390Zm117.09,15.17c-.66,4.18-1.44,8.35-2,12.54l-.07,0a32.2,32.2,0,0,1-1.61,6.67,4.78,4.78,0,0,1-2.64,1.43,25,25,0,0,1-8.85.6,3.46,3.46,0,0,0-1.29,0c-1.35-.31-2.75-.21-4.11-.41a4.34,4.34,0,0,1-1.44-.91l-.06.05-.71-.55A21.11,21.11,0,0,1,433,429l-1.13,0c-.59,0-1.19,0-1.77,0a14.65,14.65,0,0,1-4.71-1.34,7.21,7.21,0,0,1-4.28,2.11c-1.33,0-2.6.49-3.93.51a58.14,58.14,0,0,0-7,.72c-1.28.19-2.56.35-3.84.54a61.54,61.54,0,0,1-10.83,1.07,9.3,9.3,0,0,1-3.54-.84.6.6,0,0,0-.53-.31v0c-2.43-1.54-4.66-3.76-5.29-6.67a37.88,37.88,0,0,0-3.55,1.93c-2.05.66-4,1.7-6.08,2.24l0,.05a22.72,22.72,0,0,1-11.76.77,15.52,15.52,0,0,1-4.58-2.15c-.37,4.34-.64,8.74-1.44,13a13.88,13.88,0,0,1-1,1.93,12.43,12.43,0,0,1-1.35,1.16,7.25,7.25,0,0,1-3.59.46l-.22,1.51a2.94,2.94,0,0,1-.87,1.74,7.74,7.74,0,0,1-3.34,1.31,5.32,5.32,0,0,1-2.39-.55,9.92,9.92,0,0,1-2.73-1.94,3.92,3.92,0,0,0-.74-.82c-.14-.72-.34-1.42-.53-2.12q0-.81,0-1.61c-2.21-.76-4.39-2.27-5.14-4.58-.4-1.66-.61-3.35-.87-5a8.35,8.35,0,0,1-3.84.22,6.11,6.11,0,0,1-3.91,5,15.63,15.63,0,0,0-2.53.71c-1.11.17-2.19.52-3.3.73a6.57,6.57,0,0,1-3.91,3.36l-2.13.48a83.51,83.51,0,0,0,11.15,7.67,2.64,2.64,0,0,0,1.27.46,61.21,61.21,0,0,0,9.8,4.88.83.83,0,0,0,.56.48,119.1,119.1,0,0,0,25.89,7.57,20.58,20.58,0,0,0,2.22.37c1,.1,1.95.25,2.92.41,2.49.33,5,.57,7.51.74a35.47,35.47,0,0,0,4.28.21,9.85,9.85,0,0,0,1.77,0l.09.1c2.6.06,5.2,0,7.8-.08,1.06,0,2.11-.09,3.17-.16,1.93-.11,3.86-.29,5.79-.49a37.39,37.39,0,0,0,3.76-.49c2.47-.33,4.93-.79,7.38-1.26a85.18,85.18,0,0,0,8.35-2c.67-.21,1.34-.43,2-.58a36.34,36.34,0,0,0,4.17-1.37c15.89-5.43,30.84-14.43,41.83-27.27h.15a56.94,56.94,0,0,0,6.59-9.05l-.74-.74a9.08,9.08,0,0,1-1-1.77c-.74-1.65-1.56-3.25-2.36-4.87C468.77,411.93,467,408.59,465.31,405.21ZM298.24,422.64a6.8,6.8,0,0,0,.74,1.22C298.92,423.33,299.08,422.4,298.24,422.64Zm54.27,11a23.43,23.43,0,0,0,.75,5.23c.22.69.6,1.55,1.45,1.55A87.43,87.43,0,0,0,356,431.3,7.29,7.29,0,0,1,352.51,433.69Zm-13-1.62a23.72,23.72,0,0,0,1.13,4.85c.27.69.66,1.46,1.47,1.59a16.08,16.08,0,0,0,.75-4.7,8.28,8.28,0,0,1-2.62-1.92Zm6.09,2.43c-.12,3.12-.58,6.26-.17,9.38.29,1.73,2.58,2,3.86,1.23.62-.33.52-1.11.57-1.69.12-3.08.15-6.16.25-9.25A17.92,17.92,0,0,1,345.62,434.49Z" transform="translate(-265.02 -294.35)" style="fill:#070607"/><path id="_Path_" data-name="&lt;Path&gt;" d="M314.22,310a10.37,10.37,0,0,1,7-6.88,2.73,2.73,0,0,1,2.8.74c.32.37,0,.86,0,1.28-.1-.43-.26-.93-.74-1.05a4.8,4.8,0,0,0-3.74.92,9.8,9.8,0,0,0-4.3,8.73,2.77,2.77,0,0,0,2.93,2.79,5.94,5.94,0,0,0,3.49-2.07,4.86,4.86,0,0,0,.89-2.61,4,4,0,0,1,0,3.3,5.22,5.22,0,0,1-3.49,2.68,5,5,0,0,0,0,3.78,5.75,5.75,0,0,0,7.91,3c-2.55,1.77-6.18.8-8.19-1.35a5.76,5.76,0,0,1-1.44-5.12,3.69,3.69,0,0,1-2.8-1.24,15.51,15.51,0,0,0-1.7,4.59,18.42,18.42,0,0,0-.53,4.84,16.29,16.29,0,0,1-.59-3.39c-.13-2.81.84-5.51,1.85-8.07A13.5,13.5,0,0,1,314.22,310Z" transform="translate(-265.02 -294.35)" style="fill:#070607"/><path id="_Path_2" data-name="&lt;Path&gt;" d="M319,308c1.85-.89,3.9,1.79,2.72,3.4a1.82,1.82,0,0,1-2.7-.17C318.13,310.45,317.82,308.73,319,308Z" transform="translate(-265.02 -294.35)" style="fill:#070607"/><path id="_Path_3" data-name="&lt;Path&gt;" d="M413.35,358.28a3.39,3.39,0,0,1,3.84.2c1.62,1.1,2.19,3.1,2.51,4.93a8.85,8.85,0,0,1-5.39,2.83,3.4,3.4,0,0,1-3-.94c-.86-1-1.66-2.31-1.19-3.64A7,7,0,0,1,413.35,358.28Z" transform="translate(-265.02 -294.35)" style="fill:#070607"/><path id="_Path_4" data-name="&lt;Path&gt;" d="M398,369.55a45.08,45.08,0,0,0,6.58-4.18,13.36,13.36,0,0,0,7.21,3.9C407.17,369.24,402.57,369.4,398,369.55Z" transform="translate(-265.02 -294.35)" style="fill:#070607"/><path id="_Path_5" data-name="&lt;Path&gt;" d="M289.84,410.65a150.84,150.84,0,0,1,14.06-28.57c-.19,3.16-.46,6.31-.69,9.46a88.5,88.5,0,0,0,.34,14.91A135.7,135.7,0,0,0,289.84,410.65Z" transform="translate(-265.02 -294.35)" style="fill:#070607"/><path id="_Path_6" data-name="&lt;Path&gt;" d="M440.08,394c.7-.3,1.87-.37,2.13.53a11.69,11.69,0,0,1,.27,3.82,23,23,0,0,1-1,6.41c-1.25,3.78-2.91,7.61-5.88,10.37-.49.41-1,1-1.71.9a2.92,2.92,0,0,1-2.71-2.25,14.71,14.71,0,0,1,.18-6.75,20.69,20.69,0,0,1,5.06-10.15A10.91,10.91,0,0,1,440.08,394Z" transform="translate(-265.02 -294.35)" style="fill:#070607"/><path id="_Path_7" data-name="&lt;Path&gt;" d="M377.28,395.1a8.84,8.84,0,0,1,6.63.18,5.67,5.67,0,0,1,3,3.79,10.32,10.32,0,0,1-.62,6c-1.54-2.2-3.26-4.43-5.68-5.73a11,11,0,0,0-10.67.92A16.6,16.6,0,0,1,377.28,395.1Z" transform="translate(-265.02 -294.35)" style="fill:#070607"/><path id="_Path_8" data-name="&lt;Path&gt;" d="M372.18,408.34a8.94,8.94,0,0,1,4.16-1.13c1.9,1.1,3,3.09,4.28,4.84a24.34,24.34,0,0,1-7.27,4.32,5.17,5.17,0,0,1-3.74.07,3.39,3.39,0,0,1-1.57-4.2A8.48,8.48,0,0,1,372.18,408.34Z" transform="translate(-265.02 -294.35)" style="fill:#070607"/><path id="_Path_9" data-name="&lt;Path&gt;" d="M317.92,302.25c3.46-2.87,8-4,12.46-4.05a7.12,7.12,0,0,1,3.91,1.3,4.8,4.8,0,0,1,1.85,3.4,5.31,5.31,0,0,0-5.71-1.44c-2.85.73-4.22,4.06-3.71,6.78-1.36-.41-3-1.42-2.69-3.08,0-.42.31-.91,0-1.28a2.73,2.73,0,0,0-2.8-.74,10.37,10.37,0,0,0-7,6.88,13.5,13.5,0,0,0-.67,4.86c-1,2.57-2,5.27-1.85,8.07a16.29,16.29,0,0,0,.59,3.39c0,.43.1.87.17,1.3-2-5.36-2.66-11.46-.64-16.92A20.7,20.7,0,0,1,317.92,302.25Z" transform="translate(-265.02 -294.35)" style="fill:#e11f26"/><path id="_Path_10" data-name="&lt;Path&gt;" d="M348.77,325.79a3.82,3.82,0,0,1,3.73-.65,11.48,11.48,0,0,1,5.14,3.1c2.28,2.49,4.5,5.17,5.64,8.4,2.62,7.55,2.43,15.75,1.09,23.54a39.25,39.25,0,0,1-1.78,7.12c-.78-5.17-1.45-10.45-3.53-15.29a47.13,47.13,0,0,0-2.66-5.35c-1.89-2.88-4-5.61-5.78-8.56a23,23,0,0,1-3.19-7.33A5.16,5.16,0,0,1,348.77,325.79Z" transform="translate(-265.02 -294.35)" style="fill:#e11f26"/><path id="_Path_11" data-name="&lt;Path&gt;" d="M309.36,331.39a5,5,0,0,1,3.51-2,4.71,4.71,0,0,0,1.29.37,4.3,4.3,0,0,1,3,2.31c.39,2-.1,4-.43,6-.51,3.11-1.14,6.28-.66,9.44A22,22,0,0,0,321.74,359a34.53,34.53,0,0,0,13.23,9,21.07,21.07,0,0,1-8.07-1c-6-1.8-11.65-5.27-15.3-10.43a27.36,27.36,0,0,1-4.9-17.6A12.53,12.53,0,0,1,309.36,331.39Z" transform="translate(-265.02 -294.35)" style="fill:#e11f26"/><path id="_Path_12" data-name="&lt;Path&gt;" d="M312.83,321.51a15.51,15.51,0,0,1,1.7-4.59,3.69,3.69,0,0,0,2.8,1.24,5.76,5.76,0,0,0,1.44,5.12c2,2.16,5.64,3.12,8.19,1.35l.55-.34a6.49,6.49,0,0,0,4.22.75,8.48,8.48,0,0,0,4.8-1.82,9.12,9.12,0,0,0,1.63-2.34,8,8,0,0,0,3.56,4.41,14.87,14.87,0,0,0,5.57,2.59c-.92,3,.12,6.23,1.51,8.94,1.66,3.09,3.65,6,5.31,9.07a82.16,82.16,0,0,1,4.57,9.56,16.6,16.6,0,0,1,1.41,6.86c-.08,2-.18,4.21-1.56,5.78-.84,1-2.86,1.3-3.4-.13-.91-2.64.09-5.37.37-8-.65,2.52-1,5.35-3,7.26-1.11,1.31-2.86,1.64-4.38,2.24a16,16,0,0,1-8.26-.57,19.72,19.72,0,0,1-3.72-1.26c-3.41-1.72-6.94-3.38-9.79-6-3.48-3.22-6.69-7-8.18-11.56-1.46-4.32-1.17-9-.6-13.41a7.83,7.83,0,0,0-.43-4.64,4.3,4.3,0,0,0-3-2.31,4.71,4.71,0,0,1-1.29-.37c-.16-.56-.31-1.12-.41-1.69s-.12-.87-.17-1.3A18.42,18.42,0,0,1,312.83,321.51Z" transform="translate(-265.02 -294.35)" style="fill:#f7b61c"/><path id="_Path_13" data-name="&lt;Path&gt;" d="M486,366.78a10.21,10.21,0,0,1,1.57-3.54c2.84,0,5.69.06,8.53,0a1.39,1.39,0,0,1,1.08,1.65c-.16,2.14-1.11,4.09-1.61,6.16-1.38,6.2-3.22,12.28-5,18.39C489,395.82,488,402.31,487,408.78c-.3,2-.61,4.08-.73,6.13-.14,1.06-.31,2.35-1.31,3-.74.46-1.57-.1-2.35.11a22.16,22.16,0,0,1-5.84,1,1.15,1.15,0,0,1-1.17-.82c-2.71-6.54-6.32-12.67-8.75-19.33-.86-2.22-1.47-4.53-2.44-6.71a19.2,19.2,0,0,1-1.76-5.11c-2.23,11.19-3.68,22.51-5.57,33.75-.09.53-.7.67-1.14.81a16.79,16.79,0,0,1-5,.19,6.44,6.44,0,0,1-2.62-.62c1.19-8.79,2.6-17.56,3.95-26.33,1.06-7,1.73-14,3.42-20.86.07-.64.76-.79,1.28-.9,2.56-.43,5.18-.08,7.75-.4a2.06,2.06,0,0,1,1.93,1.2c1,1.66,1.29,3.62,2.15,5.35.74,1.52,1.58,3,2.31,4.53,2.7,5.44,3.35,11.7,6.57,16.91.64-4.19,1.76-8.3,2.81-12.4.68-2.73,1.61-5.39,2.25-8.13C483.83,375.68,484.71,371.18,486,366.78Z" transform="translate(-265.02 -294.35)" style="fill:#f7b61c"/><path d="M305.88,367.75c2.13,0,4.22-.76,6.36-.57.71,0,1.54.47,1.51,1.28-.87,7.59-1.16,15.24-1.3,22.87-.28,14.28,1.48,28.5,3.13,42.66,0,.52-.49.82-.91,1-2.39.83-5,.13-7.4,1.1-.73.33-.73-.7-.85-1.14-1.12-6.71-1.48-13.51-1.93-20.28-5.93,1.61-11.91,3.08-17.82,4.77-2.07,6-4.17,12-5.9,18.07-.27.87-.36,2.1-1.38,2.43a25.38,25.38,0,0,1-4.36.36c-1.5,0-2.9.89-4.42.64a.73.73,0,0,1-.55-1.07c2.44-7.21,4.79-14.45,7.37-21.61a160,160,0,0,1,11.91-26.52c2.44-4.22,4.61-8.58,6.89-12.89a57.87,57.87,0,0,1,4-6.39,21.18,21.18,0,0,1,2.88-3.46A4.18,4.18,0,0,1,305.88,367.75Zm-16,42.9a135.7,135.7,0,0,1,13.71-4.2,88.5,88.5,0,0,1-.34-14.91c.24-3.15.5-6.3.69-9.46A150.84,150.84,0,0,0,289.84,410.65Z" transform="translate(-265.02 -294.35)" style="fill:#f7b61c"/><path id="_Path_14" data-name="&lt;Path&gt;" d="M413.58,383.91c3.91-.93,7.82-1.87,11.79-2.5.58-.15,1,.34,1.43.67A19.3,19.3,0,0,1,430,386c.22.41.57.94.2,1.37a29.51,29.51,0,0,1-5.34,5.71c-2.3,2.17-4.36,4.57-6.76,6.63a41,41,0,0,0-5.73,5.81c-1.44,1.81-2.76,3.71-4.24,5.49-2,2.39-4.18,4.61-5.7,7.32,5.54.13,11.07-.56,16.6-.74.83-.07,1.38.68,1.85,1.24a7.29,7.29,0,0,1,1.65,4,1.43,1.43,0,0,1-1.17,1.51,60.94,60.94,0,0,1-6.1.56c-5.13.46-10.21,1.36-15.31,2a26.51,26.51,0,0,1-5,.24,3.82,3.82,0,0,1-1.94-1,4,4,0,0,1-1.78-2.88,10.65,10.65,0,0,1,1.19-4.65,36.6,36.6,0,0,1,4.69-7.59c2.6-3.42,5.41-6.67,8.3-9.84,2.59-2.82,5.24-5.6,8.06-8.21.61-.57,1.2-1.16,1.78-1.77-3.53.55-7,1.45-10.44,2.31-2.37.89-4.53,2.34-7,2.89-.44.08-1.1.16-1.28-.36-.76-1.58-1.89-3-2.43-4.67-.2-.6-.21-1.48.49-1.75,2.06-.81,4.19-1.45,6.27-2.19A122.55,122.55,0,0,1,413.58,383.91Z" transform="translate(-265.02 -294.35)" style="fill:#f7b61c"/><path d="M439.64,386.76a8.74,8.74,0,0,1,7.3,1.81c1.83,1.73,2.47,4.32,2.63,6.75a37.38,37.38,0,0,1-1.8,12.26,23.33,23.33,0,0,1-1.81,4.79,28.12,28.12,0,0,1-6.74,7.86,14.45,14.45,0,0,1-7.72,3.44,8.49,8.49,0,0,1-7.55-3.85,11.65,11.65,0,0,1-1.6-6.83,35.79,35.79,0,0,1,2.24-10.2,29.64,29.64,0,0,1,6.87-11.28A15.71,15.71,0,0,1,439.64,386.76Zm.45,7.28a10.91,10.91,0,0,0-3.7,2.88,20.69,20.69,0,0,0-5.06,10.15,14.71,14.71,0,0,0-.18,6.75,2.92,2.92,0,0,0,2.71,2.25c.71.12,1.22-.49,1.71-.9,3-2.76,4.62-6.58,5.88-10.37a23,23,0,0,0,1-6.41,11.69,11.69,0,0,0-.27-3.82C442,393.66,440.78,393.74,440.08,394Z" transform="translate(-265.02 -294.35)" style="fill:#f7b61c"/><path d="M369.24,390.79a20.55,20.55,0,0,1,14.69-3.42,16.38,16.38,0,0,1,7.37,2.88,9.35,9.35,0,0,1,3.07,3.74,14.88,14.88,0,0,1,.76,5.1,21.74,21.74,0,0,1-3.27,13.16c-.47.81-1.25,1.44-1.49,2.38a8.24,8.24,0,0,1-3,4A2.66,2.66,0,0,1,385,419a42,42,0,0,1-10,4.77c-3,.94-6.31,1.62-9.43.77a7.3,7.3,0,0,1-4.82-4.28,10.83,10.83,0,0,1-.55-6.71,29.84,29.84,0,0,1,3.87-7.4c-1.32-.14-2.23,1.69-3.58.89-1.35-1.09-1.88-2.87-3.1-4.09a17.3,17.3,0,0,1,3-3.88c1.8-1.89,3.72-3.66,5.64-5.42A34.12,34.12,0,0,1,369.24,390.79Zm8,4.32a16.6,16.6,0,0,0-7.34,5.13,11,11,0,0,1,10.67-.92c2.41,1.3,4.13,3.52,5.68,5.73a10.32,10.32,0,0,0,.62-6,5.67,5.67,0,0,0-3-3.79A8.84,8.84,0,0,0,377.28,395.1Zm-5.1,13.23a8.48,8.48,0,0,0-4.13,3.89,3.39,3.39,0,0,0,1.57,4.2,5.17,5.17,0,0,0,3.74-.07,24.34,24.34,0,0,0,7.27-4.32c-1.24-1.75-2.39-3.74-4.28-4.84A8.94,8.94,0,0,0,372.18,408.34Z" transform="translate(-265.02 -294.35)" style="fill:#f7b61c"/><path id="_Path_15" data-name="&lt;Path&gt;" d="M348.21,390a17.85,17.85,0,0,1,7.16-2.14,3,3,0,0,1,3.2,2c.53,2.17-.28,4.36-1,6.38A97.44,97.44,0,0,0,354,409.43a78,78,0,0,0-1.67,13c-.05,1.54.22,3.17-.38,4.64a2,2,0,0,1-1.54,1.3c-1.77.33-3.61.93-5.41.45a1.58,1.58,0,0,1-1.1-1.87c1-9.79,2.33-19.54,3.43-29.32a29.9,29.9,0,0,0-4.49,10.21c-1.5,5.6-2.11,11.39-3.48,17-.19.64-.39,1.59-1.2,1.66-1.33.05-2.68-.32-4,.07-.62.13-1.44.47-1.9-.14a6.54,6.54,0,0,1-.55-2.81,77.62,77.62,0,0,1,.48-15c.15-1.25.54-2.46.74-3.7-3.89,7.08-5.49,15.16-6.09,23.14-.14,1.29.15,2.76-.57,3.91a35.65,35.65,0,0,1-7.2,1.72c-.63-1.63-.29-3.43-.32-5.14a116.34,116.34,0,0,1,1.37-20A103.1,103.1,0,0,1,323.43,394a14.76,14.76,0,0,1,2.48-4.85,2.67,2.67,0,0,1,2.57-.47,11.5,11.5,0,0,0,2.65-.06c.54.1.31.72.25,1.09-.88,3.65-2.1,7.23-2.39,11a25.52,25.52,0,0,1,5.57-5.46,8.78,8.78,0,0,1,4.77-1.9,2.24,2.24,0,0,1,2.19,1.28c.2,1-.4,1.92-.73,2.82C342.79,394.56,345,391.69,348.21,390Z" transform="translate(-265.02 -294.35)" style="fill:#f7b61c"/><path id="_Path_16" data-name="&lt;Path&gt;" d="M352.51,433.69A7.29,7.29,0,0,0,356,431.3a87.43,87.43,0,0,1-1.31,9.17c-.85,0-1.23-.86-1.45-1.55A23.43,23.43,0,0,1,352.51,433.69Z" transform="translate(-265.02 -294.35)" style="fill:#f7b61c"/><path id="_Path_17" data-name="&lt;Path&gt;" d="M339.53,432.06l.74-.18a8.28,8.28,0,0,0,2.62,1.92,16.08,16.08,0,0,1-.75,4.7c-.81-.13-1.2-.91-1.47-1.59A23.72,23.72,0,0,1,339.53,432.06Z" transform="translate(-265.02 -294.35)" style="fill:#f7b61c"/><path id="_Path_18" data-name="&lt;Path&gt;" d="M345.62,434.49a17.92,17.92,0,0,0,4.5-.33c-.09,3.08-.12,6.17-.25,9.25-.06.58,0,1.36-.57,1.69-1.28.77-3.57.49-3.86-1.23C345,440.75,345.5,437.61,345.62,434.49Z" transform="translate(-265.02 -294.35)" style="fill:#f7b61c"/><path id="_Path_19" data-name="&lt;Path&gt;" d="M374.25,318a132.1,132.1,0,0,1,17.91-.43c-7.26,6.65-12,15.37-17,23.71a29.52,29.52,0,0,0-2.64,5,3.68,3.68,0,0,1-.76.85,26.79,26.79,0,0,0-3.32,4.2,76.72,76.72,0,0,0-.87-11.63C369.08,332.27,370.21,324.52,374.25,318Z" transform="translate(-265.02 -294.35)" style="fill:#144522"/><path id="_Path_20" data-name="&lt;Path&gt;" d="M398.14,318a109.73,109.73,0,0,1,11.66,1.61,8.14,8.14,0,0,0-2.64,1.18A60,60,0,0,0,389.3,335a20.54,20.54,0,0,0-2.23,3l0,.08a11.46,11.46,0,0,1-1.78.5c.34-.91.72-1.81,1.15-2.68C389.54,329.41,393.79,323.62,398.14,318Z" transform="translate(-265.02 -294.35)" style="fill:#144522"/><path id="_Path_21" data-name="&lt;Path&gt;" d="M354.85,321.42c3.28-.88,6.61-1.57,10-2.16a9.53,9.53,0,0,1,1.27-.12,26.36,26.36,0,0,0-5.68,6.84A24.59,24.59,0,0,0,354.85,321.42Z" transform="translate(-265.02 -294.35)" style="fill:#144522"/><path id="_Path_22" data-name="&lt;Path&gt;" d="M413.91,320.44a50.2,50.2,0,0,1,5.44,1.38,111.51,111.51,0,0,0-21,12.31,34,34,0,0,1,2.35-2.56,76.55,76.55,0,0,1,8.84-8.11C411,322.4,412.51,321.5,413.91,320.44Z" transform="translate(-265.02 -294.35)" style="fill:#144522"/><path id="_Path_23" data-name="&lt;Path&gt;" d="M427.21,324.28l.06,0a85.9,85.9,0,0,1,8.89,3.6,139.05,139.05,0,0,0-26.45,11.5c-.55-.42-1.09-.86-1.63-1.3C414.25,333.16,420.74,328.72,427.21,324.28Z" transform="translate(-265.02 -294.35)" style="fill:#144522"/><path id="_Path_24" data-name="&lt;Path&gt;" d="M438.48,328.94l.08,0a23.4,23.4,0,0,1,4.12,2.28l-.26.06a116.17,116.17,0,0,0-11.53,3.13c-2.54.79-5,1.86-7.49,2.76C428.35,334.27,433.36,331.51,438.48,328.94Z" transform="translate(-265.02 -294.35)" style="fill:#144522"/><path id="_Path_25" data-name="&lt;Path&gt;" d="M296.2,363.72A65.54,65.54,0,0,1,304.95,351a34.69,34.69,0,0,0,2.87,5.87,37.42,37.42,0,0,0,3.07,4.08c-2.4.73-5,.13-7.34,1.18a7.07,7.07,0,0,0-2.16,1.44l-.12,0A30.58,30.58,0,0,0,296.2,363.72Z" transform="translate(-265.02 -294.35)" style="fill:#144522"/><path id="_Path_26" data-name="&lt;Path&gt;" d="M466.14,363.47a20.89,20.89,0,0,0,8.47-3.44,57.21,57.21,0,0,1,5.75,12,95,95,0,0,0-13.53-3.24c-2.54-.34-5.08-.66-7.61-1,1.83-1.1,3.86-1.91,5.52-3.29C465.19,364.09,465.55,363.56,466.14,363.47Z" transform="translate(-265.02 -294.35)" style="fill:#144522"/><path id="_Path_27" data-name="&lt;Path&gt;" d="M293.88,368.56c1.07,0,2.15.12,3.22.21-1.42,2.17-2.92,4.29-4.12,6.58-.89,1.57-1.67,3.21-2.65,4.73a19.86,19.86,0,0,1,.66-3.16A56.19,56.19,0,0,1,293.88,368.56Z" transform="translate(-265.02 -294.35)" style="fill:#144522"/><path id="_Path_28" data-name="&lt;Path&gt;" d="M318.09,375a37.63,37.63,0,0,1,6.28,4.35,5.55,5.55,0,0,0-2.12,3.29,5.15,5.15,0,0,0,1,3.46,6.69,6.69,0,0,0-2.3,2.43c-1,2.08-1.77,4.23-2.61,6.36a3.57,3.57,0,0,1-.5.84C317.81,388.78,318,381.87,318.09,375Z" transform="translate(-265.02 -294.35)" style="fill:#144522"/><path id="_Path_29" data-name="&lt;Path&gt;" d="M476.43,383a11.77,11.77,0,0,1,1.93,0c-.15,1.19-.31,2.38-.56,3.56A14,14,0,0,1,476.43,383Z" transform="translate(-265.02 -294.35)" style="fill:#144522"/><path id="_Path_30" data-name="&lt;Path&gt;" d="M465.31,405.21c1.69,3.38,3.46,6.72,5.22,10.07a61.28,61.28,0,0,0-7.26,2.47C463.87,413.56,464.65,409.39,465.31,405.21Z" transform="translate(-265.02 -294.35)" style="fill:#144522"/><path id="_Path_31" data-name="&lt;Path&gt;" d="M455.52,435.11a82.92,82.92,0,0,0,18.4-13.19l.74.74a56.94,56.94,0,0,1-6.59,9.05h-.15a2.53,2.53,0,0,0-.92,0,59.61,59.61,0,0,0-8.48,3.32A156.73,156.73,0,0,0,430,451.78c-2.43,1.73-4.72,3.63-7.13,5.38,1.22-4.53,2.62-9,4-13.49C436.92,443.08,446.65,439.77,455.52,435.11Z" transform="translate(-265.02 -294.35)" style="fill:#144522"/><path id="_Path_32" data-name="&lt;Path&gt;" d="M298.24,422.64c.84-.23.68.69.74,1.22A6.8,6.8,0,0,1,298.24,422.64Z" transform="translate(-265.02 -294.35)" style="fill:#144522"/><path id="_Path_33" data-name="&lt;Path&gt;" d="M443.2,425.22l.06-.05a4.34,4.34,0,0,0,1.44.91c1.36.2,2.76.1,4.11.41-7.42,5.12-14.65,10.5-21.6,16.24,1.11-3.65,2.36-7.26,3.62-10.87A36.56,36.56,0,0,0,443.2,425.22Z" transform="translate(-265.02 -294.35)" style="fill:#144522"/><path id="_Path_34" data-name="&lt;Path&gt;" d="M376.48,428.92c2.1-.54,4-1.58,6.08-2.24A106.87,106.87,0,0,0,374.49,438a109.6,109.6,0,0,0-9.34,20.06q-1.71-5.11-3.58-10.17A48.82,48.82,0,0,0,376.45,429Z" transform="translate(-265.02 -294.35)" style="fill:#144522"/><path id="_Path_35" data-name="&lt;Path&gt;" d="M360.1,427.6a15.52,15.52,0,0,0,4.58,2.15c-1.39,5.34-2.63,10.72-3.87,16.1-.76-1.73-1.29-3.55-2.15-5.23C359.46,436.34,359.73,431.94,360.1,427.6Z" transform="translate(-265.02 -294.35)" style="fill:#144522"/><path id="_Path_36" data-name="&lt;Path&gt;" d="M421.06,429.76a7.21,7.21,0,0,0,4.28-2.11,14.65,14.65,0,0,0,4.71,1.34c-1.87,4.75-3.53,9.57-5.19,14.39C423.66,438.83,422.36,434.3,421.06,429.76Z" transform="translate(-265.02 -294.35)" style="fill:#144522"/><path id="_Path_37" data-name="&lt;Path&gt;" d="M431.83,429l1.13,0a12.71,12.71,0,0,1-1.86,2.22C431.31,430.46,431.56,429.73,431.83,429Z" transform="translate(-265.02 -294.35)" style="fill:#144522"/><path id="_Path_38" data-name="&lt;Path&gt;" d="M406.29,431.54c1.28-.2,2.56-.35,3.84-.54a50.29,50.29,0,0,0,14,14.61c-1.2,3.72-2.3,7.47-3.45,11.2-3.67-8.91-8-17.63-13.92-25.3Z" transform="translate(-265.02 -294.35)" style="fill:#144522"/><path id="_Path_39" data-name="&lt;Path&gt;" d="M387.07,441.88a31.53,31.53,0,0,0,4.32-10.41.6.6,0,0,1,.53.31,8.34,8.34,0,0,0,.64,2,30.25,30.25,0,0,0,3.52,6.38,86.93,86.93,0,0,0,8.71,10.24,48.22,48.22,0,0,0-1.62,13.85l1-.09a37.39,37.39,0,0,1-3.76.49c-.09-2.38-.3-4.74-.33-7.12a29,29,0,0,0-2.94-11.11c-1.12-2.53-2.39-5-3.57-7.51a18.75,18.75,0,0,0-1.22-2.46c.12,6.61-.62,13.25.18,19.85a42.38,42.38,0,0,0,2.1,8.84c-1.06.07-2.11.14-3.17.16-3-5.37-7.27-9.82-11.57-14.14A80.78,80.78,0,0,0,387.07,441.88Z" transform="translate(-265.02 -294.35)" style="fill:#144522"/><path id="_Path_40" data-name="&lt;Path&gt;" d="M325.52,438a15.63,15.63,0,0,1,2.53-.71,77.21,77.21,0,0,0,13.81,6c.18.7.38,1.41.53,2.12A160.66,160.66,0,0,0,325.52,438Z" transform="translate(-265.02 -294.35)" style="fill:#144522"/><path id="_Path_41" data-name="&lt;Path&gt;" d="M316.19,442.55l2.13-.48a68.58,68.58,0,0,0,10.29,8.6,2.64,2.64,0,0,1-1.27-.46A83.51,83.51,0,0,1,316.19,442.55Z" transform="translate(-265.02 -294.35)" style="fill:#144522"/><path id="_Path_42" data-name="&lt;Path&gt;" d="M356.28,443.69a12.43,12.43,0,0,0,1.35-1.16c.33.93.68,1.85,1,2.78C357.81,444.83,357,444.26,356.28,443.69Z" transform="translate(-265.02 -294.35)" style="fill:#144522"/><path id="_Path_43" data-name="&lt;Path&gt;" d="M351.6,447.4a2.94,2.94,0,0,0,.87-1.74,39.86,39.86,0,0,0,6.22.56c.36-.05.4.39.53.62,1.36,3.87,2.78,7.74,4,11.66a169.74,169.74,0,0,0-15-9.79A7.74,7.74,0,0,0,351.6,447.4Z" transform="translate(-265.02 -294.35)" style="fill:#144522"/><path id="_Path_44" data-name="&lt;Path&gt;" d="M367.77,458.84a24.05,24.05,0,0,0,8.75-4.49,36.07,36.07,0,0,0,4.26,7.72c.83,1.15,1.84,2.15,2.78,3.22a9.85,9.85,0,0,1-1.77,0,35.47,35.47,0,0,1-4.28-.21c.63,0,1.26,0,1.89,0A40.47,40.47,0,0,0,367.77,458.84Z" transform="translate(-265.02 -294.35)" style="fill:#144522"/><path id="_Path_45" data-name="&lt;Path&gt;" d="M411.38,455.35a24,24,0,0,0,9,2.8c-.23.88-.49,1.75-.71,2.63l.26.13a85.18,85.18,0,0,1-8.35,2C411.58,460.39,411.49,457.87,411.38,455.35Z" transform="translate(-265.02 -294.35)" style="fill:#144522"/><path id="_Path_46" data-name="&lt;Path&gt;" d="M338.41,455.56c3.19,1.2,6.33,2.55,9.63,3.43,5,1.43,10.46,2.05,15.57.62.44,1.32.87,2.65,1.25,4A119.1,119.1,0,0,1,339,456,.83.83,0,0,1,338.41,455.56Z" transform="translate(-265.02 -294.35)" style="fill:#144522"/><path id="_Path_47" data-name="&lt;Path&gt;" d="M422.5,458.42a24.69,24.69,0,0,0,3.59.54,36.34,36.34,0,0,1-4.17,1.37C422.12,459.7,422.31,459.06,422.5,458.42Z" transform="translate(-265.02 -294.35)" style="fill:#144522"/><path id="_Path_48" data-name="&lt;Path&gt;" d="M365.7,459.58c1.48,1.56,2.85,3.22,4.3,4.81-1-.17-1.94-.31-2.92-.41C366.63,462.5,366.1,461.06,365.7,459.58Z" transform="translate(-265.02 -294.35)" style="fill:#144522"/><path id="_Path_49" data-name="&lt;Path&gt;" d="M392.17,317.56q3,.14,6,.41c-4.35,5.64-8.6,11.44-11.75,17.86-.43.87-.81,1.77-1.15,2.68l0,.1a38.63,38.63,0,0,0-12.72,7.63,29.52,29.52,0,0,1,2.64-5C380.13,332.93,384.91,324.21,392.17,317.56Z" transform="translate(-265.02 -294.35)" style="fill:#4ca146"/><path id="_Path_50" data-name="&lt;Path&gt;" d="M366.95,318.86c2.43-.35,4.86-.68,7.31-.87-4,6.53-5.17,14.28-6.73,21.67-.8-5.19-3.76-9.76-7.13-13.67a26.36,26.36,0,0,1,5.68-6.84A1.93,1.93,0,0,1,366.95,318.86Z" transform="translate(-265.02 -294.35)" style="fill:#4ca146"/><path id="_Path_51" data-name="&lt;Path&gt;" d="M407.15,320.76a8.14,8.14,0,0,1,2.64-1.18c1.37.29,2.74.58,4.12.85-1.4,1.06-2.92,2-4.32,3a76.55,76.55,0,0,0-8.84,8.11,34,34,0,0,0-2.35,2.56,111.51,111.51,0,0,1,21-12.31c2.65.73,5.27,1.54,7.86,2.47-6.47,4.44-13,8.88-19.12,13.75a15.86,15.86,0,0,0-5.32-2.27,16.59,16.59,0,0,0-5.22-.17,51,51,0,0,0-10.48,2.33,20.54,20.54,0,0,1,2.23-3A60,60,0,0,1,407.15,320.76Z" transform="translate(-265.02 -294.35)" style="fill:#4ca146"/><path id="_Path_52" data-name="&lt;Path&gt;" d="M409.72,339.34a139.05,139.05,0,0,1,26.45-11.5c.75.41,1.54.74,2.31,1.11-5.11,2.56-10.13,5.32-15.09,8.18,2.51-.89,4.95-2,7.49-2.76a116.17,116.17,0,0,1,11.53-3.13,67.49,67.49,0,0,0-5.16,4.55c-.41.41-.86.91-1.5.86a66.83,66.83,0,0,0-16.27,2.79,29.59,29.59,0,0,0-7.33,2.83A16.29,16.29,0,0,0,409.72,339.34Z" transform="translate(-265.02 -294.35)" style="fill:#4ca146"/><path id="_Path_53" data-name="&lt;Path&gt;" d="M384.25,357.09a15.51,15.51,0,0,1,4.65-6,6.75,6.75,0,0,0,2.14,5.22,10.35,10.35,0,0,0,8,2.91c.74,0,1.48-.17,2.22-.26a9.3,9.3,0,0,1-2.06,1.38,25.08,25.08,0,0,1-9.14,3.46,5.89,5.89,0,0,1-5.47-2.42A4.68,4.68,0,0,1,384.25,357.09Z" transform="translate(-265.02 -294.35)" style="fill:#4ca146"/><path id="_Path_54" data-name="&lt;Path&gt;" d="M296.2,363.72a30.58,30.58,0,0,1,5.06-.18,30.87,30.87,0,0,0-4.17,5.23c-1.07-.08-2.14-.17-3.22-.21h-.25a38.05,38.05,0,0,1,2.22-4.73Z" transform="translate(-265.02 -294.35)" style="fill:#4ca146"/><path id="_Path_55" data-name="&lt;Path&gt;" d="M364.11,368.71a11.77,11.77,0,0,0,1.82-2.35,12.48,12.48,0,0,0,.61,1.94C365.73,368.48,364.92,368.59,364.11,368.71Z" transform="translate(-265.02 -294.35)" style="fill:#4ca146"/><path id="_Path_56" data-name="&lt;Path&gt;" d="M318.09,375a60.51,60.51,0,0,1,.42-7.87c1.18.54,2.38,1.06,3.54,1.66,0-.15,0-.44,0-.59a16.63,16.63,0,0,1,2.55.88c1.26,1.25,2.52,2.52,3.66,3.89-.66,1-1.88,1.66-2.28,2.85.05.82.29,1.62.37,2.44a14.12,14.12,0,0,0-2,1.09A37.63,37.63,0,0,0,318.09,375Z" transform="translate(-265.02 -294.35)" style="fill:#4ca146"/><path id="_Path_57" data-name="&lt;Path&gt;" d="M387.82,380.58c5.51-.33,11-.34,16.55-.41a4.8,4.8,0,0,1,1.17.1c-4.43,1.37-8.8,2.92-13.17,4.46a25.49,25.49,0,0,0-26.94,2c-.87.65-1.68,1.38-2.49,2.1-.31-.46-.66-.89-.94-1.37,0-1.56.18-3.12.25-4.68a234.25,234.25,0,0,1,25.32-2.29v.32Z" transform="translate(-265.02 -294.35)" style="fill:#4ca146"/><path id="_Path_58" data-name="&lt;Path&gt;" d="M433,381.06c1.58.18,3.16.33,4.74.49a27.86,27.86,0,0,0-3.58,1.26C433.78,382.22,433.4,381.64,433,381.06Z" transform="translate(-265.02 -294.35)" style="fill:#4ca146"/><path id="_Path_59" data-name="&lt;Path&gt;" d="M446.94,382.41c.67,0,1.34.09,2,.14,0,.3-.09.61-.14.91C448.19,383.1,447.56,382.76,446.94,382.41Z" transform="translate(-265.02 -294.35)" style="fill:#4ca146"/><path id="_Path_60" data-name="&lt;Path&gt;" d="M463.26,417.75a61.28,61.28,0,0,1,7.26-2.47c.81,1.61,1.62,3.22,2.36,4.87a9.08,9.08,0,0,0,1,1.77,82.92,82.92,0,0,1-18.4,13.19c-8.87,4.66-18.6,8-28.65,8.56-1.39,4.48-2.79,9-4,13.49,2.41-1.75,4.7-3.65,7.13-5.38a156.73,156.73,0,0,1,28.54-16.73,59.61,59.61,0,0,1,8.48-3.32,2.53,2.53,0,0,1,.92,0c-11,12.84-25.94,21.84-41.83,27.27a24.69,24.69,0,0,1-3.59-.54c-.19.64-.38,1.28-.57,1.91-.69.14-1.36.37-2,.58l-.26-.13c.21-.88.48-1.75.71-2.63a24,24,0,0,1-9-2.8c.11,2.51.2,5,.17,7.55-2.45.47-4.91.93-7.38,1.26l-1,.09a48.22,48.22,0,0,1,1.62-13.85,86.93,86.93,0,0,1-8.71-10.24,30.25,30.25,0,0,1-3.52-6.38,8.34,8.34,0,0,1-.64-2,9.3,9.3,0,0,0,3.54.84,61.54,61.54,0,0,0,10.83-1.07l.49,0c5.89,7.67,10.25,16.39,13.92,25.3,1.15-3.73,2.25-7.48,3.45-11.2a50.29,50.29,0,0,1-14-14.61,58.14,58.14,0,0,1,7-.72c1.33,0,2.6-.47,3.93-.51,1.29,4.53,2.59,9.06,3.8,13.62,1.67-4.82,3.33-9.64,5.19-14.39.59,0,1.18,0,1.77,0-.27.71-.52,1.44-.73,2.18A12.71,12.71,0,0,0,433,429a21.11,21.11,0,0,0,9.52-4.31l.71.55a36.56,36.56,0,0,1-12.37,6.65c-1.26,3.6-2.51,7.21-3.62,10.87,6.95-5.74,14.18-11.13,21.6-16.24a3.46,3.46,0,0,1,1.29,0,25,25,0,0,0,8.85-.6,4.78,4.78,0,0,0,2.64-1.43,32.2,32.2,0,0,0,1.61-6.67Z" transform="translate(-265.02 -294.35)" style="fill:#4ca146"/><path id="_Path_61" data-name="&lt;Path&gt;" d="M382.55,426.68a37.88,37.88,0,0,1,3.55-1.93c.63,2.91,2.86,5.13,5.29,6.67v0a31.53,31.53,0,0,1-4.32,10.41,80.78,80.78,0,0,1-7.2,9.29c4.3,4.32,8.6,8.77,11.57,14.14-2.6.1-5.2.14-7.8.08l-.09-.1c-.93-1.07-1.94-2.07-2.78-3.22a36.07,36.07,0,0,1-4.26-7.72,24.05,24.05,0,0,1-8.75,4.49,40.47,40.47,0,0,1,11.63,6.32c-.63,0-1.26,0-1.89,0-2.51-.16-5-.4-7.51-.74-1.44-1.59-2.82-3.25-4.3-4.81.41,1.48.94,2.92,1.38,4.4a20.58,20.58,0,0,1-2.22-.37c-.38-1.34-.82-2.67-1.25-4-5.1,1.44-10.54.81-15.57-.62-3.3-.88-6.44-2.23-9.63-3.43a61.21,61.21,0,0,1-9.8-4.88,68.58,68.58,0,0,1-10.29-8.6,6.57,6.57,0,0,0,3.91-3.36c1.11-.2,2.19-.56,3.3-.73a160.66,160.66,0,0,1,16.87,7.41,3.92,3.92,0,0,1,.74.82,9.92,9.92,0,0,0,2.73,1.94,5.32,5.32,0,0,0,2.39.55,169.74,169.74,0,0,1,15,9.79c-1.21-3.92-2.63-7.79-4-11.66-.12-.23-.17-.67-.53-.62a39.86,39.86,0,0,1-6.22-.56l.22-1.51a7.25,7.25,0,0,0,3.59-.46c.76.57,1.53,1.13,2.35,1.63-.31-.94-.67-1.85-1-2.78a13.88,13.88,0,0,0,1-1.93c.86,1.68,1.4,3.5,2.15,5.23,1.24-5.38,2.48-10.76,3.87-16.1a22.72,22.72,0,0,0,11.76-.77,48.82,48.82,0,0,1-14.88,18.94q1.86,5.06,3.58,10.17A109.6,109.6,0,0,1,374.49,438,106.87,106.87,0,0,1,382.55,426.68Z" transform="translate(-265.02 -294.35)" style="fill:#4ca146"/><path id="_Path_62" data-name="&lt;Path&gt;" d="M332,432.28a8.35,8.35,0,0,0,3.84-.22c.26,1.68.47,3.38.87,5,.75,2.31,2.93,3.82,5.14,4.58q0,.8,0,1.61a77.21,77.21,0,0,1-13.81-6A6.11,6.11,0,0,0,332,432.28Z" transform="translate(-265.02 -294.35)" style="fill:#4ca146"/><path id="_Path_63" data-name="&lt;Path&gt;" d="M392.34,436.46a18.75,18.75,0,0,1,1.22,2.46c1.18,2.51,2.45,5,3.57,7.51a29,29,0,0,1,2.94,11.11c0,2.38.24,4.74.33,7.12-1.93.2-3.85.39-5.79.49a42.38,42.38,0,0,1-2.1-8.84C391.72,449.72,392.46,443.08,392.34,436.46Z" transform="translate(-265.02 -294.35)" style="fill:#4ca146"/></svg>